<svg width="200" height="30" viewBox="0 0 200 30" fill="none" xmlns="http://www.w3.org/2000/svg">
<path d="M82.6036 10.3804C79.6138 1.10808 68.2978 -2.55112 60.4159 3.18855C60.2408 3.31656 60.0672 3.44604 59.8303 3.62113C57.1319 1.64512 54.1627 0.479825 50.7551 0.470997C47.3372 0.460698 44.3533 1.58038 41.7005 3.57699C35.5915 -0.62809 29.5473 -0.616319 23.4486 3.59023C21.5462 2.13802 19.401 1.15517 16.9998 0.67257C9.25174 -0.885574 1.33156 4.67754 0.192745 12.5212C0.169203 12.6875 0.06621 12.842 0 13.0024V16.0642C0.306037 17.2898 0.495839 18.5596 0.93871 19.7352C4.27716 28.6059 15.0826 31.8251 22.8984 26.3135C23.0749 26.1885 23.2471 26.0575 23.481 25.8854C26.175 27.8805 29.153 29.0281 32.5547 29.0281C35.9623 29.0281 38.9506 27.904 41.6181 25.9192C47.7124 30.0978 53.7551 30.1199 59.8641 25.9192C61.8386 27.3802 64.0501 28.366 66.5248 28.8531C74.1213 30.3479 82.1681 24.5744 83.1274 16.8779C83.1524 16.6748 83.2568 16.4806 83.3245 16.2834V13.4393C83.0876 12.4182 82.9243 11.3751 82.6036 10.3804ZM21.1475 23.571C16.9542 27.1066 10.1772 26.5592 6.22815 22.3689C2.1967 18.0917 2.1967 11.4251 6.22668 7.13762C10.161 2.95314 16.935 2.40286 21.1504 5.93112C17.1293 11.8091 17.166 17.6915 21.1489 23.571H21.1475ZM23.4898 21.0859C20.7164 17.8975 20.6987 11.7753 23.5001 8.37354C26.3089 11.8547 26.2809 17.9475 23.4898 21.0859ZM25.8234 23.5724C29.8342 17.7209 29.8533 11.8385 25.8469 5.96496C26.3869 5.47942 27.0004 5.06892 27.6655 4.73345C27.9318 4.59956 28.2055 4.47744 28.485 4.36856C28.6248 4.31412 28.7675 4.26263 28.9102 4.21407C30.0579 3.82417 31.3011 3.62848 32.5459 3.62701C35.0368 3.62407 37.5381 4.39652 39.3081 5.94583C36.5979 9.90961 35.7343 13.8734 36.6803 17.8342C36.7436 18.0976 36.8142 18.3624 36.8937 18.6258C37.0585 19.1761 37.26 19.7278 37.494 20.2781C37.9648 21.3801 38.5739 22.4807 39.3228 23.5813C35.4827 26.6666 29.8372 26.6725 25.8219 23.571L25.8234 23.5724ZM41.7108 21.0579C39.0183 18.3521 38.6931 11.8106 41.6564 8.41179C44.4416 11.4619 44.4681 17.615 41.7108 21.0579ZM57.4585 23.5342C54.1701 26.6652 47.73 26.6858 43.9914 23.5592C48.0081 17.6871 48.0008 11.8003 43.9987 5.92082C47.7874 2.84132 53.4991 2.83102 57.4879 5.91788C53.4609 11.8371 53.4932 17.6827 57.4585 23.5327V23.5342ZM59.8435 21.0844C57.0392 18.0844 56.998 11.9415 59.7597 8.44269C62.3992 11.0661 62.8568 17.4855 59.8435 21.0844ZM77.117 22.3144C73.2533 26.5225 66.5749 27.0977 62.1462 23.5695C63.2791 21.901 64.0913 20.2399 64.5827 18.5817C64.6607 18.3168 64.7313 18.052 64.7946 17.7871C65.7303 13.8189 64.8416 9.87283 62.1771 5.92965C63.9868 4.3921 66.2865 3.62701 68.6377 3.60053C70.3165 3.5814 72.0217 3.93893 73.5931 4.65989C74.8496 5.23665 76.0208 6.04736 77.0228 7.08465C81.0955 11.2956 81.1367 17.9372 77.117 22.3144Z" fill="#231F20"/>
<path d="M98.5265 4.5745C98.2352 4.02128 97.8821 3.86385 97.3112 3.89327C96.7286 3.92417 96.2313 3.86532 95.862 4.55832C94.2832 7.50981 92.6191 10.4157 90.9918 13.3422C90.7859 13.7115 90.6093 14.0955 90.4062 14.4972C92.5588 14.8297 92.6971 14.7664 93.6653 13.0582C93.7374 12.9302 93.8271 12.8096 93.8801 12.6742C94.0375 12.2666 94.3332 12.1666 94.7482 12.1769C95.7751 12.2019 96.8198 12.2975 97.8291 12.1592C99.4697 11.9356 100.544 12.4461 101.028 14.0779C101.085 14.2721 101.329 14.5369 101.502 14.5487C102.245 14.6002 102.994 14.5708 103.815 14.5708C103.747 14.3707 103.728 14.2794 103.687 14.2C101.962 10.9925 100.22 7.79673 98.5265 4.57303V4.5745ZM95.0012 10.5511C95.7178 9.03706 96.3828 7.63194 97.1155 6.08556C97.8247 7.61869 98.4765 9.0297 99.1798 10.5511H95.0012Z" fill="#CF202A"/>
<path d="M125.935 3.70333C125.284 3.65919 124.621 3.61946 123.98 3.70774C123.868 3.72246 123.793 4.34336 123.784 4.68765C123.758 5.67786 123.775 6.66807 123.775 7.801C121.355 6.27375 118.748 6.4253 117.269 8.04083C116.049 9.37386 115.966 11.7618 117.084 13.2979C118.367 15.0591 120.811 15.2769 123.705 13.8555C123.752 14.6913 124.346 14.6059 124.913 14.5824C125.157 14.5721 125.403 14.5721 125.647 14.5839C126.022 14.603 126.152 14.4529 126.149 14.063C126.118 10.7819 126.11 7.49937 126.085 4.2183C126.085 4.03879 126 3.70627 125.937 3.70186L125.935 3.70333ZM121.22 13.4289C119.619 13.42 118.665 12.4239 118.664 10.7599C118.664 9.18405 119.726 8.07319 121.249 8.05848C122.762 8.04377 123.771 9.09577 123.773 10.6892C123.773 12.4269 122.831 13.4392 121.22 13.4303V13.4289Z" fill="#CF202A"/>
<path d="M145.297 3.91399C143.562 3.82424 141.821 3.88604 140.084 3.84778C139.551 3.83601 139.483 4.10674 139.486 4.53048C139.497 6.12247 139.491 7.71298 139.491 9.30496H139.494C139.494 10.8719 139.501 12.4389 139.488 14.0059C139.485 14.3619 139.488 14.6283 139.966 14.6224C141.876 14.6003 143.789 14.6709 145.694 14.5709C147.593 14.4708 149.103 13.5807 149.784 11.7356C150.089 10.9102 150.154 9.96265 150.161 9.06955C150.186 5.93266 148.439 4.07437 145.298 3.91399H145.297ZM148.085 11.6164C147.586 12.6493 146.749 13.2408 145.601 13.2879C144.258 13.3438 142.912 13.3261 141.567 13.36C141.111 13.3717 140.983 13.1775 140.992 12.7435C141.015 11.5693 140.999 10.3952 140.999 9.2211C140.999 8.07051 141.012 6.9214 140.992 5.77229C140.983 5.3044 141.142 5.11313 141.627 5.12343C142.776 5.14697 143.928 5.10283 145.076 5.13961C146.784 5.19405 148.026 6.22693 148.414 7.8969C148.71 9.16666 148.662 10.4232 148.085 11.6179V11.6164Z" fill="#231F20"/>
<path d="M114.201 11.6535C114.197 10.1159 114.201 8.57838 114.201 6.99669H111.887C111.887 7.75296 111.887 8.43713 111.887 9.1213C111.887 9.80694 111.909 10.4941 111.877 11.1782C111.809 12.6025 110.86 13.4529 109.412 13.422C108.093 13.3941 107.535 12.7349 107.511 11.1753C107.508 11.0031 107.513 10.8325 107.513 10.6603C107.513 9.44352 107.513 8.2282 107.513 6.97168H105.265C105.265 8.71374 105.225 10.3543 105.276 11.9904C105.319 13.3514 106.022 14.2371 107.339 14.6167C109.036 15.1067 110.623 14.9242 111.999 13.4985C112.072 13.9076 112.125 14.2048 112.192 14.5785C112.714 14.5785 113.225 14.5594 113.732 14.5844C114.178 14.6064 114.254 14.396 114.235 14.0017C114.199 13.219 114.204 12.4347 114.203 11.6505L114.201 11.6535Z" fill="#CF202A"/>
<path d="M190.448 7.04591C189.545 6.75459 188.51 6.65307 187.566 6.75459C185.204 7.00766 183.836 8.68057 183.948 11.0215C184.013 12.3707 184.391 13.6331 185.712 14.2761C187.51 15.1515 189.362 15.0985 191.173 14.2805C191.989 13.9126 192.351 13.1858 192.565 12.1147C191.931 12.2515 191.163 12.2015 191 12.4913C190.313 13.7169 189.253 13.8685 188.054 13.8302C186.483 13.7802 185.602 12.8489 185.625 11.1554H192.59C192.718 8.8483 192.114 7.58295 190.447 7.04591H190.448ZM185.675 10.0342C185.563 8.74089 186.583 7.79188 188.076 7.7448C190.042 7.683 191.057 8.43338 191.038 10.0342H185.675Z" fill="#231F20"/>
<path d="M157.721 6.80763C154.955 6.21763 151.604 7.42854 152.066 11.5586C152.209 12.8372 152.776 13.8995 154.06 14.4115C155.702 15.0662 157.357 15.0559 158.991 14.3968C159.888 14.0348 160.416 13.333 160.615 12.2825C159.812 12.2074 159.079 12.0029 158.715 12.9578C158.632 13.1785 158.355 13.3624 158.124 13.4831C157.209 13.9671 156.216 13.9642 155.271 13.6817C154.123 13.3389 153.538 12.2898 153.748 11.1128H160.653C160.93 8.69536 159.988 7.28876 157.721 6.80616V6.80763ZM158.445 10.0784C157.05 10.0843 155.655 10.0814 154.26 10.0784C154.073 10.0784 153.887 10.0505 153.648 10.0313C153.657 9.21179 154.007 8.63945 154.622 8.21276C155.736 7.44031 157.709 7.56978 158.573 8.48495C158.768 8.69241 158.936 8.9499 159.045 9.21474C159.328 9.90038 159.2 10.0755 158.443 10.0784H158.445Z" fill="#231F20"/>
<path d="M169.737 6.99326C168.788 6.62248 167.766 6.48124 166.79 6.8373C166.034 7.11391 165.342 7.56414 164.582 7.95698C164.546 7.66125 164.51 7.33461 164.465 6.96089H163.102V14.5191C164.546 14.7634 164.558 14.7472 164.57 13.4303C164.579 12.3048 164.52 11.1689 164.657 10.0581C164.842 8.56317 166.283 7.63182 167.926 7.79808C169.419 7.94963 170.039 8.71031 170.043 10.4068C170.046 11.6309 170.059 12.8565 170.037 14.0807C170.03 14.4588 170.143 14.6368 170.529 14.6104C170.858 14.5883 171.189 14.5736 171.454 14.5589C171.454 12.7271 171.482 10.9909 171.444 9.25617C171.419 8.12619 170.742 7.38316 169.737 6.99179V6.99326Z" fill="#231F20"/>
<path d="M180.751 7.98256C180.134 9.2332 179.505 10.4779 178.875 11.7227C178.617 12.2318 178.348 12.735 178.023 13.3603C177.068 11.4579 176.174 9.70403 175.307 7.93695C174.757 6.81579 174.421 6.65983 173.125 7.04385C174.404 9.43919 175.673 11.8345 176.962 14.2196C177.279 14.8051 178.645 14.8213 178.968 14.249C180.308 11.8639 181.631 9.46861 182.99 7.02325C181.532 6.71869 181.325 6.81874 180.751 7.98403V7.98256Z" fill="#231F20"/>
<path d="M128.725 14.5378H130.812V6.9751H128.725V14.5378Z" fill="#CF202A"/>
<path d="M198.797 6.8698C198.222 6.9522 197.677 7.29208 197.137 7.55397C196.936 7.65108 196.786 7.85413 196.59 8.02921C196.452 7.61136 196.434 7.09786 196.206 6.97721C195.89 6.80801 195.417 6.93454 194.998 6.93454V14.5546H196.437C196.437 14.2485 196.436 14.0072 196.437 13.7659C196.447 12.5904 196.396 11.4103 196.484 10.2421C196.587 8.89877 197.455 8.17782 198.773 8.18665C199.156 8.18959 199.54 8.18665 199.914 8.18665C200.133 6.90217 199.998 6.69913 198.796 6.87127L198.797 6.8698Z" fill="#231F20"/>
<path d="M129.502 3.60495C128.631 3.59171 128.631 3.60348 128.631 4.73935C128.631 5.43676 129.019 5.78498 129.795 5.784C130.922 5.784 130.925 5.784 130.92 4.77172C130.914 3.4122 131.028 3.62702 129.502 3.60495Z" fill="#CF202A"/>
<path d="M95.2899 24.9067C95.3075 24.9508 95.3149 24.9861 95.3134 25.0141C95.3119 25.042 95.3016 25.0626 95.2825 25.0773C95.2634 25.0921 95.234 25.1009 95.1942 25.1053C95.1545 25.1097 95.1045 25.1112 95.0427 25.1112C94.9809 25.1112 94.9323 25.1097 94.8956 25.1053C94.8588 25.1009 94.8308 25.095 94.8102 25.0862C94.7896 25.0773 94.7749 25.0656 94.7646 25.0509C94.7543 25.0362 94.7455 25.0185 94.7366 24.9979L94.1923 23.4854H91.7028L91.1819 24.9891C91.176 25.0097 91.1672 25.0273 91.1554 25.042C91.1436 25.0567 91.1275 25.0685 91.1069 25.0788C91.0863 25.0891 91.0583 25.0965 91.0215 25.1024C90.9847 25.1082 90.9391 25.1112 90.8832 25.1112C90.8214 25.1112 90.7699 25.1082 90.7302 25.1024C90.689 25.0965 90.6596 25.0862 90.6405 25.0715C90.6213 25.0567 90.611 25.0362 90.6096 25.0097C90.6081 24.9832 90.6154 24.9479 90.6331 24.9052L92.6194 19.5083C92.6282 19.4848 92.6415 19.4657 92.6591 19.4495C92.6768 19.4333 92.6989 19.4215 92.7268 19.4127C92.7548 19.4039 92.7886 19.398 92.8283 19.3936C92.8681 19.3892 92.9122 19.3877 92.9622 19.3877C93.0152 19.3877 93.0608 19.3892 93.1005 19.3936C93.1403 19.398 93.1741 19.4054 93.202 19.4127C93.23 19.4201 93.2521 19.4333 93.2683 19.4495C93.2844 19.4657 93.2962 19.4848 93.305 19.5083L95.2913 24.9052L95.2899 24.9067ZM92.9357 19.988H92.9313L91.8617 23.0395H94.0319L92.9357 19.988Z" fill="#231F20"/>
<path d="M104.29 25C104.29 25.0176 104.285 25.0338 104.277 25.0485C104.268 25.0633 104.253 25.075 104.231 25.0838C104.209 25.0927 104.181 25.1 104.147 25.1059C104.113 25.1118 104.071 25.1147 104.018 25.1147C103.971 25.1147 103.929 25.1118 103.895 25.1059C103.862 25.1 103.832 25.0927 103.812 25.0838C103.791 25.075 103.776 25.0633 103.767 25.0485C103.759 25.0338 103.754 25.0176 103.754 25V19.8842H103.745L101.513 25.0309C101.508 25.0426 101.499 25.0529 101.487 25.0632C101.475 25.0735 101.459 25.0824 101.438 25.0897C101.418 25.0971 101.394 25.103 101.366 25.1074C101.338 25.1118 101.306 25.1133 101.268 25.1133C101.226 25.1133 101.191 25.1118 101.163 25.1074C101.134 25.103 101.11 25.0971 101.091 25.0897C101.072 25.0824 101.057 25.0735 101.046 25.0632C101.034 25.0529 101.026 25.0426 101.023 25.0309L98.9018 19.8842H98.8974V25C98.8974 25.0176 98.893 25.0338 98.8841 25.0485C98.8753 25.0633 98.8606 25.075 98.8385 25.0838C98.8164 25.0927 98.7885 25.1 98.7547 25.1059C98.7208 25.1118 98.6767 25.1147 98.6208 25.1147C98.5707 25.1147 98.5295 25.1118 98.4957 25.1059C98.4619 25.1 98.4354 25.0927 98.4148 25.0838C98.3942 25.075 98.3809 25.0633 98.3736 25.0485C98.3662 25.0338 98.3633 25.0176 98.3633 25V19.6914C98.3633 19.5869 98.3912 19.5134 98.4471 19.4751C98.5031 19.4354 98.5575 19.4163 98.609 19.4163H98.8988C98.9724 19.4163 99.0357 19.4236 99.0916 19.4398C99.1475 19.456 99.1961 19.4795 99.2387 19.5104C99.2814 19.5413 99.3167 19.5781 99.3461 19.6223C99.3756 19.6664 99.402 19.7164 99.4256 19.7709L101.297 24.2776H101.319L103.27 19.7885C103.3 19.7179 103.331 19.659 103.364 19.6105C103.398 19.5619 103.433 19.5237 103.469 19.4942C103.506 19.4648 103.545 19.4442 103.587 19.4325C103.629 19.4207 103.675 19.4148 103.725 19.4148H104.044C104.071 19.4148 104.099 19.4192 104.128 19.428C104.157 19.4369 104.184 19.4516 104.207 19.4736C104.231 19.4957 104.25 19.5237 104.266 19.559C104.282 19.5943 104.29 19.6384 104.29 19.6899V24.9985V25Z" fill="#231F20"/>
<path d="M108.589 24.4146C108.589 24.4499 108.587 24.4808 108.584 24.5087C108.581 24.5367 108.577 24.5602 108.571 24.5808C108.565 24.6014 108.558 24.6191 108.548 24.6353C108.537 24.6514 108.514 24.6779 108.475 24.7162C108.437 24.7544 108.374 24.803 108.284 24.8604C108.194 24.9192 108.094 24.9707 107.984 25.0134C107.874 25.0561 107.753 25.0928 107.625 25.1208C107.497 25.1488 107.363 25.162 107.226 25.162C106.951 25.162 106.708 25.1164 106.496 25.0237C106.285 24.931 106.107 24.7956 105.964 24.6161C105.821 24.4366 105.712 24.2159 105.637 23.954C105.562 23.6921 105.525 23.3905 105.525 23.0492C105.525 22.6637 105.571 22.3326 105.664 22.059C105.756 21.7838 105.883 21.5587 106.043 21.3836C106.204 21.2085 106.392 21.079 106.607 20.9952C106.822 20.9113 107.051 20.8701 107.297 20.8701C107.428 20.8701 107.554 20.8819 107.674 20.9069C107.793 20.9319 107.903 20.9643 108.005 21.0055C108.105 21.0467 108.196 21.0938 108.274 21.1453C108.352 21.1968 108.411 21.2424 108.447 21.2791C108.484 21.3159 108.509 21.3439 108.522 21.363C108.536 21.3821 108.546 21.4027 108.553 21.4263C108.561 21.4498 108.565 21.4748 108.568 21.5028C108.571 21.5307 108.573 21.5631 108.573 21.6014C108.573 21.6867 108.561 21.7456 108.536 21.7794C108.511 21.8132 108.484 21.8294 108.455 21.8294C108.414 21.8294 108.364 21.8029 108.303 21.75C108.243 21.697 108.166 21.6396 108.074 21.5764C107.98 21.5131 107.866 21.4557 107.734 21.4027C107.601 21.3498 107.443 21.3233 107.259 21.3233C106.879 21.3233 106.586 21.469 106.38 21.7617C106.174 22.0545 106.071 22.4768 106.071 23.0286C106.071 23.3066 106.099 23.5494 106.155 23.7583C106.211 23.9673 106.29 24.1409 106.393 24.2807C106.496 24.4204 106.623 24.5234 106.773 24.5926C106.922 24.6617 107.089 24.6956 107.278 24.6956C107.453 24.6956 107.609 24.6676 107.743 24.6117C107.877 24.5558 107.994 24.4955 108.093 24.4278C108.191 24.3601 108.275 24.2998 108.34 24.2439C108.406 24.188 108.455 24.16 108.487 24.16C108.505 24.16 108.52 24.1659 108.533 24.1747C108.546 24.185 108.556 24.2012 108.565 24.2233C108.574 24.2454 108.58 24.2718 108.584 24.3027C108.589 24.3336 108.59 24.369 108.59 24.4101L108.589 24.4146Z" fill="#231F20"/>
<path d="M113.921 22.1677C113.921 22.6444 113.861 23.0637 113.742 23.4286C113.621 23.792 113.445 24.0966 113.211 24.3423C112.977 24.588 112.688 24.7734 112.344 24.8985C112.001 25.0235 111.591 25.0868 111.114 25.0868H109.996C109.943 25.0868 109.89 25.0677 109.834 25.0279C109.778 24.9882 109.75 24.9161 109.75 24.8116V19.6914C109.75 19.5869 109.778 19.5134 109.834 19.4751C109.89 19.4354 109.944 19.4163 109.996 19.4163H111.189C111.672 19.4163 112.078 19.4825 112.41 19.6134C112.741 19.7444 113.019 19.9312 113.243 20.1725C113.467 20.4138 113.636 20.7037 113.749 21.0406C113.862 21.3775 113.92 21.7542 113.92 22.1691L113.921 22.1677ZM113.347 22.1941C113.347 21.8646 113.306 21.5571 113.222 21.276C113.138 20.995 113.01 20.7508 112.837 20.5462C112.663 20.3417 112.443 20.1814 112.178 20.0666C111.911 19.9504 111.573 19.893 111.161 19.893H110.289V24.6101H111.165C111.551 24.6101 111.878 24.563 112.145 24.4674C112.413 24.3717 112.635 24.2261 112.813 24.026C112.991 23.8273 113.125 23.5772 113.215 23.2741C113.305 22.971 113.349 22.612 113.349 22.1941H113.347Z" fill="#231F20"/>
<path d="M118.619 22.9763C118.619 23.2927 118.578 23.5825 118.497 23.8488C118.415 24.1151 118.293 24.3461 118.131 24.5418C117.969 24.7375 117.766 24.8905 117.523 24.9994C117.28 25.1083 116.998 25.1642 116.677 25.1642C116.356 25.1642 116.096 25.1156 115.864 25.0171C115.631 24.9185 115.437 24.7787 115.281 24.5963C115.125 24.4138 115.007 24.1916 114.931 23.9327C114.853 23.6723 114.814 23.3795 114.814 23.0514C114.814 22.7232 114.854 22.4452 114.935 22.1789C115.016 21.9125 115.137 21.683 115.299 21.4888C115.46 21.2946 115.663 21.143 115.906 21.0356C116.149 20.9267 116.433 20.8738 116.757 20.8738C117.08 20.8738 117.338 20.9223 117.57 21.018C117.803 21.1151 117.995 21.2534 118.151 21.4373C118.306 21.6197 118.424 21.8419 118.502 22.1009C118.581 22.3613 118.619 22.6526 118.619 22.9778V22.9763ZM118.068 23.0249C118.068 22.7998 118.045 22.5849 118.001 22.3804C117.957 22.1759 117.885 21.9949 117.782 21.839C117.679 21.683 117.542 21.5579 117.37 21.4667C117.198 21.374 116.983 21.3284 116.726 21.3284C116.489 21.3284 116.284 21.3711 116.112 21.455C115.94 21.5403 115.799 21.658 115.688 21.8081C115.58 21.9582 115.497 22.1362 115.446 22.3407C115.393 22.5452 115.366 22.7659 115.366 23.0028C115.366 23.2397 115.388 23.4471 115.432 23.6531C115.477 23.8591 115.549 24.0401 115.652 24.1946C115.755 24.3491 115.891 24.4727 116.064 24.5624C116.236 24.6536 116.451 24.6978 116.708 24.6978C116.945 24.6978 117.149 24.6551 117.322 24.5712C117.494 24.4874 117.635 24.3697 117.745 24.2211C117.856 24.0725 117.937 23.8959 117.988 23.6899C118.04 23.4839 118.068 23.2632 118.068 23.0234V23.0249Z" fill="#231F20"/>
<path d="M123.028 25.0011C123.028 25.0188 123.023 25.035 123.015 25.0497C123.006 25.0644 122.993 25.0762 122.973 25.085C122.954 25.0938 122.928 25.1012 122.894 25.1071C122.86 25.113 122.819 25.1159 122.769 25.1159C122.716 25.1159 122.673 25.113 122.639 25.1071C122.606 25.1012 122.579 25.0938 122.56 25.085C122.541 25.0762 122.528 25.0644 122.519 25.0497C122.51 25.035 122.506 25.0188 122.506 25.0011V22.647C122.506 22.4013 122.486 22.2027 122.448 22.0482C122.41 21.8951 122.353 21.7627 122.277 21.6538C122.201 21.5435 122.104 21.4596 121.986 21.3993C121.868 21.339 121.73 21.3096 121.571 21.3096C121.37 21.3096 121.168 21.3816 120.967 21.5244C120.765 21.6671 120.553 21.8775 120.331 22.1556V25.0011C120.331 25.0188 120.327 25.035 120.318 25.0497C120.309 25.0644 120.296 25.0762 120.276 25.085C120.257 25.0938 120.231 25.1012 120.197 25.1071C120.163 25.113 120.121 25.1159 120.068 25.1159C120.018 25.1159 119.976 25.113 119.942 25.1071C119.909 25.1012 119.882 25.0938 119.862 25.085C119.841 25.0762 119.828 25.0644 119.82 25.0497C119.813 25.035 119.809 25.0188 119.809 25.0011V21.0329C119.809 21.0153 119.813 20.9991 119.82 20.9844C119.828 20.9697 119.841 20.9579 119.862 20.9476C119.882 20.9373 119.907 20.9299 119.938 20.9255C119.969 20.9211 120.009 20.9196 120.059 20.9196C120.109 20.9196 120.15 20.9211 120.181 20.9255C120.212 20.9299 120.238 20.9373 120.256 20.9476C120.274 20.9579 120.285 20.9697 120.293 20.9844C120.3 20.9991 120.303 21.0153 120.303 21.0329V21.5935C120.531 21.339 120.755 21.1551 120.974 21.0418C121.193 20.927 121.411 20.8711 121.627 20.8711C121.888 20.8711 122.107 20.9152 122.285 21.002C122.463 21.0903 122.607 21.208 122.716 21.3566C122.826 21.5052 122.904 21.6803 122.953 21.879C123.001 22.0776 123.025 22.3174 123.025 22.5984V25.0011H123.028Z" fill="#231F20"/>
<path d="M127.234 25.0016C127.234 25.0311 127.225 25.0531 127.206 25.0693C127.187 25.0855 127.162 25.0973 127.131 25.1046C127.1 25.112 127.059 25.1149 127.006 25.1149C126.956 25.1149 126.914 25.1105 126.879 25.1046C126.844 25.0973 126.817 25.0855 126.798 25.0693C126.779 25.0531 126.77 25.0311 126.77 25.0016V24.5588C126.592 24.7515 126.395 24.9001 126.18 25.006C125.965 25.112 125.742 25.1635 125.512 25.1635C125.305 25.1635 125.118 25.137 124.953 25.0826C124.788 25.0281 124.649 24.9516 124.534 24.8501C124.419 24.7486 124.332 24.6279 124.27 24.4837C124.209 24.341 124.178 24.1791 124.178 24.0011C124.178 23.7819 124.223 23.5906 124.313 23.4288C124.404 23.2669 124.532 23.1316 124.699 23.0227C124.865 22.9153 125.065 22.8329 125.299 22.7799C125.533 22.7255 125.793 22.699 126.079 22.699H126.71V22.3576C126.71 22.1884 126.692 22.0384 126.657 21.9089C126.622 21.7794 126.564 21.6705 126.486 21.5822C126.407 21.494 126.305 21.4292 126.179 21.3851C126.054 21.3409 125.899 21.3189 125.718 21.3189C125.537 21.3189 125.386 21.3395 125.244 21.3821C125.105 21.4248 124.981 21.4719 124.877 21.5249C124.772 21.5778 124.684 21.6249 124.616 21.6676C124.547 21.7102 124.498 21.7308 124.469 21.7308C124.451 21.7308 124.435 21.7279 124.42 21.722C124.406 21.7161 124.394 21.7058 124.384 21.6896C124.373 21.6735 124.366 21.6529 124.362 21.6279C124.357 21.6028 124.356 21.5734 124.356 21.5381C124.356 21.4763 124.36 21.4278 124.369 21.391C124.378 21.3542 124.4 21.3174 124.437 21.2806C124.473 21.2438 124.538 21.2012 124.632 21.1511C124.727 21.1011 124.834 21.0555 124.955 21.0128C125.075 20.9702 125.206 20.9363 125.347 20.9098C125.489 20.8834 125.628 20.8701 125.768 20.8701C126.04 20.8701 126.27 20.9025 126.457 20.9687C126.644 21.0349 126.795 21.1291 126.91 21.2512C127.026 21.3733 127.109 21.5249 127.157 21.7044C127.206 21.8839 127.232 22.0884 127.232 22.3164V25.0002L127.234 25.0016ZM126.711 23.1301H125.987C125.777 23.1301 125.593 23.1492 125.436 23.1875C125.278 23.2257 125.146 23.2816 125.041 23.3537C124.937 23.4273 124.857 23.5141 124.807 23.6171C124.756 23.7201 124.731 23.8363 124.731 23.9673C124.731 24.1953 124.803 24.3778 124.947 24.5131C125.091 24.6485 125.296 24.7162 125.559 24.7162C125.767 24.7162 125.961 24.6632 126.14 24.5558C126.32 24.4499 126.511 24.2851 126.713 24.0629V23.1286L126.711 23.1301Z" fill="#231F20"/>
<path d="M129.214 25C129.214 25.0176 129.209 25.0338 129.2 25.0485C129.192 25.0632 129.178 25.075 129.159 25.0838C129.14 25.0927 129.114 25.1 129.08 25.1059C129.046 25.1118 129.003 25.1147 128.95 25.1147C128.9 25.1147 128.859 25.1118 128.825 25.1059C128.791 25.1 128.765 25.0927 128.744 25.0838C128.724 25.075 128.711 25.0632 128.703 25.0485C128.696 25.0338 128.691 25.0176 128.691 25V19.0896C128.691 19.072 128.696 19.0558 128.703 19.0411C128.711 19.0263 128.724 19.0146 128.744 19.0043C128.765 18.994 128.791 18.9866 128.825 18.9822C128.859 18.9778 128.9 18.9763 128.95 18.9763C129.003 18.9763 129.046 18.9793 129.08 18.9822C129.114 18.9866 129.14 18.994 129.159 19.0043C129.178 19.0146 129.192 19.0263 129.2 19.0411C129.209 19.0558 129.214 19.072 129.214 19.0896V25Z" fill="#231F20"/>
<path d="M133.869 24.9974C133.869 25.018 133.865 25.0357 133.859 25.0504C133.852 25.0651 133.838 25.0769 133.819 25.0857C133.8 25.0945 133.777 25.1004 133.747 25.1048C133.718 25.1092 133.681 25.1107 133.637 25.1107C133.59 25.1107 133.551 25.1092 133.521 25.1048C133.49 25.1004 133.465 25.0945 133.446 25.0857C133.426 25.0769 133.412 25.0651 133.401 25.0504C133.391 25.0357 133.387 25.018 133.387 24.9974V24.428C133.176 24.6561 132.959 24.8356 132.733 24.965C132.508 25.0945 132.263 25.1607 131.996 25.1607C131.709 25.1607 131.465 25.1048 131.264 24.9945C131.062 24.8841 130.897 24.7326 130.771 24.5428C130.644 24.353 130.55 24.1293 130.493 23.8748C130.434 23.6188 130.404 23.3481 130.404 23.0611C130.404 22.7257 130.441 22.4211 130.515 22.1519C130.588 21.8811 130.696 21.6516 130.838 21.4618C130.981 21.272 131.159 21.1263 131.369 21.0233C131.58 20.9203 131.824 20.8703 132.102 20.8703C132.342 20.8703 132.561 20.9233 132.76 21.0307C132.959 21.1381 133.154 21.2941 133.347 21.5015V19.1121C133.347 19.0944 133.35 19.0782 133.357 19.0635C133.365 19.0488 133.378 19.037 133.398 19.0282C133.419 19.0194 133.446 19.012 133.479 19.0061C133.513 19.0003 133.554 18.9973 133.604 18.9973C133.657 18.9973 133.7 19.0003 133.734 19.0061C133.768 19.012 133.794 19.0194 133.813 19.0282C133.833 19.037 133.846 19.0488 133.855 19.0635C133.863 19.0782 133.868 19.0944 133.868 19.1121V25.0004L133.869 24.9974ZM133.347 22.1342C133.128 21.8679 132.917 21.6648 132.713 21.5251C132.51 21.3853 132.296 21.3147 132.076 21.3147C131.874 21.3147 131.702 21.3632 131.558 21.4589C131.415 21.556 131.297 21.6825 131.208 21.8399C131.116 21.9974 131.052 22.1769 131.01 22.3755C130.969 22.5741 130.949 22.7757 130.949 22.9802C130.949 23.1994 130.966 23.4128 131.002 23.6202C131.037 23.8277 131.097 24.0131 131.181 24.1749C131.265 24.3368 131.378 24.4677 131.518 24.5648C131.658 24.6634 131.834 24.712 132.045 24.712C132.149 24.712 132.252 24.6973 132.352 24.6678C132.451 24.6384 132.554 24.5899 132.66 24.5236C132.764 24.456 132.875 24.3692 132.986 24.2632C133.098 24.1573 133.219 24.0249 133.348 23.866V22.1342H133.347Z" fill="#231F20"/>
<path d="M140.327 19.6602C140.327 19.6985 140.324 19.7323 140.318 19.7618C140.312 19.7912 140.304 19.8147 140.29 19.8339C140.277 19.853 140.262 19.8677 140.245 19.878C140.227 19.8883 140.208 19.8927 140.187 19.8927H137.991V22.0409H140.073C140.093 22.0409 140.112 22.0453 140.13 22.0526C140.148 22.06 140.162 22.0718 140.176 22.0894C140.189 22.1071 140.198 22.1306 140.204 22.16C140.209 22.1895 140.212 22.2263 140.212 22.2704C140.212 22.3087 140.209 22.3425 140.204 22.3719C140.198 22.4013 140.189 22.4249 140.176 22.444C140.162 22.4631 140.148 22.4779 140.13 22.4882C140.112 22.4985 140.093 22.5029 140.073 22.5029H137.991V25.0012C137.991 25.0189 137.986 25.035 137.977 25.0498C137.969 25.0645 137.954 25.0762 137.933 25.0851C137.913 25.0939 137.886 25.1012 137.852 25.1071C137.818 25.113 137.776 25.116 137.723 25.116C137.673 25.116 137.63 25.113 137.596 25.1071C137.562 25.1012 137.533 25.0939 137.512 25.0851C137.492 25.0762 137.477 25.0645 137.468 25.0498C137.459 25.035 137.455 25.0189 137.455 25.0012V19.6926C137.455 19.5882 137.483 19.5146 137.539 19.4763C137.595 19.4366 137.649 19.4175 137.701 19.4175H140.187C140.208 19.4175 140.227 19.4219 140.245 19.4322C140.262 19.4425 140.277 19.4572 140.29 19.4778C140.304 19.4984 140.312 19.5234 140.318 19.5543C140.324 19.5852 140.327 19.6205 140.327 19.6617V19.6602Z" fill="#231F20"/>
<path d="M144.027 25.0016C144.027 25.0311 144.018 25.0531 143.999 25.0693C143.98 25.0855 143.955 25.0973 143.924 25.1046C143.893 25.112 143.852 25.1149 143.799 25.1149C143.749 25.1149 143.707 25.1105 143.672 25.1046C143.637 25.0973 143.61 25.0855 143.591 25.0693C143.572 25.0531 143.563 25.0311 143.563 25.0016V24.5588C143.385 24.7515 143.188 24.9001 142.973 25.006C142.758 25.112 142.535 25.1635 142.305 25.1635C142.098 25.1635 141.911 25.137 141.746 25.0826C141.581 25.0281 141.442 24.9516 141.327 24.8501C141.212 24.7486 141.125 24.6279 141.063 24.4837C141.002 24.341 140.971 24.1791 140.971 24.0011C140.971 23.7819 141.016 23.5906 141.106 23.4288C141.197 23.2669 141.325 23.1316 141.492 23.0227C141.658 22.9153 141.858 22.8329 142.092 22.7799C142.326 22.7255 142.586 22.699 142.872 22.699H143.503V22.3576C143.503 22.1884 143.485 22.0384 143.45 21.9089C143.415 21.7794 143.357 21.6705 143.279 21.5822C143.2 21.494 143.098 21.4292 142.972 21.3851C142.847 21.3409 142.692 21.3189 142.511 21.3189C142.33 21.3189 142.179 21.3395 142.037 21.3821C141.898 21.4248 141.774 21.4719 141.67 21.5249C141.565 21.5778 141.477 21.6249 141.409 21.6676C141.34 21.7102 141.291 21.7308 141.262 21.7308C141.244 21.7308 141.228 21.7279 141.213 21.722C141.199 21.7161 141.187 21.7058 141.177 21.6896C141.166 21.6735 141.159 21.6529 141.155 21.6279C141.15 21.6028 141.149 21.5734 141.149 21.5381C141.149 21.4763 141.153 21.4278 141.162 21.391C141.171 21.3542 141.193 21.3174 141.23 21.2806C141.266 21.2438 141.331 21.2012 141.425 21.1511C141.52 21.1011 141.627 21.0555 141.748 21.0128C141.868 20.9702 141.999 20.9363 142.14 20.9098C142.282 20.8834 142.421 20.8701 142.561 20.8701C142.833 20.8701 143.063 20.9025 143.25 20.9687C143.437 21.0349 143.588 21.1291 143.703 21.2512C143.819 21.3733 143.902 21.5249 143.95 21.7044C143.999 21.8839 144.025 22.0884 144.025 22.3164V25.0002L144.027 25.0016ZM143.504 23.1301H142.78C142.57 23.1301 142.386 23.1492 142.229 23.1875C142.071 23.2257 141.939 23.2816 141.834 23.3537C141.73 23.4273 141.65 23.5141 141.6 23.6171C141.549 23.7201 141.524 23.8363 141.524 23.9673C141.524 24.1953 141.596 24.3778 141.74 24.5131C141.884 24.6485 142.089 24.7162 142.352 24.7162C142.56 24.7162 142.754 24.6632 142.933 24.5558C143.113 24.4499 143.304 24.2851 143.506 24.0629V23.1286L143.504 23.1301Z" fill="#231F20"/>
<path d="M151.139 25.0016C151.139 25.0193 151.135 25.0355 151.126 25.0502C151.117 25.0649 151.104 25.0767 151.085 25.0855C151.066 25.0943 151.039 25.1017 151.005 25.1076C150.971 25.1134 150.93 25.1164 150.88 25.1164C150.827 25.1164 150.785 25.1134 150.751 25.1076C150.717 25.1017 150.69 25.0943 150.67 25.0855C150.649 25.0767 150.636 25.0649 150.629 25.0502C150.621 25.0355 150.618 25.0193 150.618 25.0016V22.5592C150.618 22.3723 150.602 22.2017 150.568 22.0487C150.535 21.8956 150.482 21.7632 150.411 21.6543C150.339 21.544 150.249 21.4601 150.139 21.3998C150.028 21.3395 149.9 21.31 149.75 21.31C149.566 21.31 149.38 21.3821 149.191 21.5249C149.003 21.6676 148.795 21.878 148.57 22.1561V25.0016C148.57 25.0193 148.566 25.0355 148.557 25.0502C148.548 25.0649 148.535 25.0767 148.516 25.0855C148.497 25.0943 148.47 25.1017 148.436 25.1076C148.403 25.1134 148.361 25.1164 148.311 25.1164C148.261 25.1164 148.22 25.1134 148.186 25.1076C148.152 25.1017 148.126 25.0943 148.105 25.0855C148.085 25.0767 148.071 25.0649 148.064 25.0502C148.057 25.0355 148.052 25.0193 148.052 25.0016V22.5592C148.052 22.3723 148.035 22.2017 147.999 22.0487C147.964 21.8956 147.911 21.7632 147.839 21.6543C147.767 21.544 147.677 21.4601 147.567 21.3998C147.456 21.3395 147.328 21.31 147.178 21.31C146.994 21.31 146.808 21.3821 146.619 21.5249C146.431 21.6676 146.225 21.878 146.003 22.1561V25.0016C146.003 25.0193 145.998 25.0355 145.99 25.0502C145.981 25.0649 145.967 25.0767 145.948 25.0855C145.929 25.0943 145.903 25.1017 145.869 25.1076C145.835 25.1134 145.792 25.1164 145.739 25.1164C145.689 25.1164 145.648 25.1134 145.614 25.1076C145.581 25.1017 145.554 25.0943 145.533 25.0855C145.513 25.0767 145.5 25.0649 145.492 25.0502C145.485 25.0355 145.48 25.0193 145.48 25.0016V21.0334C145.48 21.0158 145.485 20.9996 145.492 20.9849C145.5 20.9702 145.513 20.9584 145.533 20.9481C145.554 20.9378 145.579 20.9304 145.61 20.926C145.641 20.9216 145.681 20.9201 145.731 20.9201C145.781 20.9201 145.822 20.9216 145.853 20.926C145.884 20.9304 145.91 20.9378 145.928 20.9481C145.945 20.9584 145.957 20.9702 145.965 20.9849C145.972 20.9996 145.975 21.0158 145.975 21.0334V21.594C146.203 21.3395 146.419 21.1556 146.624 21.0423C146.828 20.9275 147.031 20.8716 147.233 20.8716C147.399 20.8716 147.548 20.8907 147.677 20.9304C147.807 20.9702 147.921 21.0261 148.021 21.0967C148.122 21.1688 148.205 21.2541 148.276 21.3527C148.347 21.4528 148.403 21.5616 148.447 21.6808C148.584 21.5293 148.713 21.4013 148.835 21.2968C148.957 21.1923 149.072 21.1099 149.181 21.0467C149.291 20.9834 149.396 20.9393 149.499 20.9113C149.602 20.8834 149.702 20.8701 149.802 20.8701C150.05 20.8701 150.259 20.9143 150.432 21.0011C150.604 21.0879 150.739 21.2071 150.843 21.3557C150.948 21.5043 151.022 21.6794 151.067 21.878C151.113 22.0766 151.135 22.287 151.135 22.5092V24.9987L151.139 25.0016Z" fill="#231F20"/>
<path d="M153.188 19.6935C153.188 19.8332 153.163 19.9289 153.113 19.9789C153.063 20.0289 152.973 20.0539 152.841 20.0539C152.708 20.0539 152.625 20.0304 152.576 19.9818C152.527 19.9333 152.504 19.8391 152.504 19.6993C152.504 19.5596 152.529 19.4639 152.579 19.4139C152.629 19.3639 152.719 19.3389 152.851 19.3389C152.984 19.3389 153.069 19.3624 153.116 19.411C153.163 19.4595 153.188 19.5537 153.188 19.6935ZM153.109 24.9976C153.109 25.0153 153.104 25.0315 153.095 25.0462C153.087 25.0609 153.073 25.0727 153.054 25.0815C153.035 25.0903 153.009 25.0977 152.975 25.1036C152.941 25.1094 152.898 25.1124 152.845 25.1124C152.795 25.1124 152.754 25.1094 152.72 25.1036C152.686 25.0977 152.66 25.0903 152.639 25.0815C152.619 25.0727 152.605 25.0609 152.598 25.0462C152.591 25.0315 152.586 25.0153 152.586 24.9976V21.0294C152.586 21.0118 152.591 20.9956 152.598 20.9809C152.605 20.9662 152.619 20.9544 152.639 20.9441C152.66 20.9338 152.686 20.9264 152.72 20.922C152.754 20.9176 152.795 20.9161 152.845 20.9161C152.898 20.9161 152.941 20.9176 152.975 20.922C153.009 20.9264 153.035 20.9338 153.054 20.9441C153.073 20.9544 153.087 20.9662 153.095 20.9809C153.104 20.9956 153.109 21.0118 153.109 21.0294V24.9976Z" fill="#231F20"/>
<path d="M155.081 25C155.081 25.0176 155.076 25.0338 155.068 25.0485C155.059 25.0632 155.046 25.075 155.026 25.0838C155.007 25.0927 154.981 25.1 154.947 25.1059C154.913 25.1118 154.871 25.1147 154.818 25.1147C154.768 25.1147 154.726 25.1118 154.692 25.1059C154.659 25.1 154.632 25.0927 154.612 25.0838C154.591 25.075 154.578 25.0632 154.57 25.0485C154.563 25.0338 154.559 25.0176 154.559 25V19.0896C154.559 19.072 154.563 19.0558 154.57 19.0411C154.578 19.0263 154.591 19.0146 154.612 19.0043C154.632 18.994 154.659 18.9866 154.692 18.9822C154.726 18.9778 154.768 18.9763 154.818 18.9763C154.871 18.9763 154.913 18.9793 154.947 18.9822C154.981 18.9866 155.007 18.994 155.026 19.0043C155.046 19.0146 155.059 19.0263 155.068 19.0411C155.076 19.0558 155.081 19.072 155.081 19.0896V25Z" fill="#231F20"/>
<path d="M158.087 25.0894L157.536 26.5755C157.521 26.6079 157.49 26.6343 157.443 26.6564C157.396 26.6785 157.322 26.6888 157.219 26.6888C157.166 26.6888 157.122 26.6858 157.088 26.68C157.053 26.6741 157.027 26.6638 157.007 26.6476C156.988 26.6314 156.978 26.6108 156.975 26.5858C156.972 26.5608 156.978 26.5313 156.993 26.496L157.553 25.0894C157.53 25.0806 157.509 25.0659 157.491 25.0453C157.474 25.0247 157.462 25.0041 157.456 24.9835L156.014 21.1124C156 21.0712 155.992 21.0389 155.992 21.0138C155.992 20.9888 156 20.9697 156.016 20.955C156.032 20.9403 156.058 20.9314 156.095 20.927C156.132 20.9226 156.181 20.9211 156.242 20.9211C156.304 20.9211 156.357 20.9226 156.395 20.927C156.434 20.9314 156.463 20.9373 156.485 20.9462C156.507 20.955 156.523 20.9668 156.534 20.9815C156.544 20.9962 156.553 21.0138 156.562 21.0344L157.802 24.498H157.82L159.038 21.0344C159.053 20.9932 159.072 20.9668 159.097 20.9535C159.122 20.9403 159.154 20.9314 159.195 20.927C159.236 20.9226 159.287 20.9211 159.344 20.9211C159.4 20.9211 159.445 20.9241 159.482 20.93C159.519 20.9359 159.545 20.9462 159.563 20.9609C159.581 20.9756 159.59 20.9947 159.59 21.0197C159.59 21.0447 159.582 21.0756 159.568 21.1139L158.086 25.0909L158.087 25.0894Z" fill="#231F20"/>
<path d="M166.798 22.1677C166.798 22.6444 166.738 23.0637 166.619 23.4286C166.498 23.792 166.321 24.0966 166.088 24.3423C165.854 24.588 165.565 24.7734 165.221 24.8985C164.878 25.0235 164.468 25.0868 163.991 25.0868H162.873C162.82 25.0868 162.767 25.0677 162.711 25.0279C162.655 24.9882 162.627 24.9161 162.627 24.8116V19.6914C162.627 19.5869 162.655 19.5134 162.711 19.4751C162.767 19.4354 162.821 19.4163 162.873 19.4163H164.066C164.549 19.4163 164.955 19.4825 165.287 19.6134C165.618 19.7444 165.896 19.9312 166.12 20.1725C166.344 20.4138 166.513 20.7037 166.626 21.0406C166.739 21.3775 166.797 21.7542 166.797 22.1691L166.798 22.1677ZM166.224 22.1941C166.224 21.8646 166.183 21.5571 166.099 21.276C166.015 20.995 165.887 20.7508 165.714 20.5462C165.54 20.3417 165.319 20.1814 165.055 20.0666C164.788 19.9504 164.45 19.893 164.038 19.893H163.165V24.6101H164.042C164.428 24.6101 164.754 24.563 165.022 24.4674C165.29 24.3717 165.512 24.2261 165.69 24.026C165.868 23.8273 166.002 23.5772 166.092 23.2741C166.182 22.971 166.226 22.612 166.226 22.1941H166.224Z" fill="#231F20"/>
<path d="M171.224 22.8135C171.224 22.9194 171.196 22.9915 171.14 23.0313C171.084 23.071 171.03 23.0901 170.978 23.0901H168.274C168.274 23.3358 168.297 23.558 168.346 23.7566C168.395 23.9553 168.474 24.1259 168.584 24.2672C168.695 24.4084 168.84 24.5173 169.018 24.5938C169.196 24.6703 169.416 24.7071 169.676 24.7071C169.86 24.7071 170.025 24.6909 170.172 24.6586C170.319 24.6262 170.444 24.5909 170.552 24.5511C170.658 24.5114 170.746 24.4761 170.815 24.4437C170.884 24.4114 170.933 24.3952 170.962 24.3952C170.98 24.3952 170.996 24.3996 171.011 24.4084C171.025 24.4173 171.037 24.4305 171.046 24.4496C171.055 24.4688 171.061 24.4923 171.065 24.5217C171.069 24.5511 171.071 24.5879 171.071 24.6321C171.071 24.6527 171.071 24.6718 171.067 24.6909C171.064 24.7101 171.061 24.7277 171.056 24.7439C171.052 24.7601 171.044 24.7748 171.037 24.7895C171.028 24.8042 171.017 24.8189 171.002 24.8336C170.987 24.8484 170.941 24.8734 170.866 24.9102C170.79 24.9469 170.691 24.9837 170.568 25.0205C170.446 25.0573 170.303 25.0897 170.141 25.1191C169.979 25.1485 169.804 25.1632 169.617 25.1632C169.311 25.1632 169.039 25.1176 168.802 25.0249C168.565 24.9322 168.367 24.7969 168.206 24.6174C168.046 24.4379 167.924 24.2142 167.84 23.9494C167.756 23.6845 167.715 23.3756 167.715 23.0239C167.715 22.6723 167.758 22.3868 167.844 22.1205C167.931 21.8542 168.055 21.6291 168.215 21.4437C168.375 21.2583 168.57 21.1171 168.796 21.0185C169.023 20.9199 169.274 20.8713 169.553 20.8713C169.851 20.8713 170.104 20.9214 170.315 21.0199C170.525 21.12 170.699 21.2524 170.834 21.4216C170.969 21.5894 171.069 21.785 171.133 22.0072C171.196 22.2294 171.227 22.4633 171.227 22.709V22.8135H171.224ZM170.684 22.6605C170.693 22.2397 170.596 21.9116 170.394 21.6747C170.193 21.4378 169.898 21.3201 169.513 21.3201C169.314 21.3201 169.139 21.3569 168.989 21.4319C168.839 21.507 168.711 21.6055 168.608 21.7277C168.503 21.8498 168.424 21.9925 168.37 22.1558C168.314 22.3177 168.281 22.4869 168.272 22.662H170.684V22.6605Z" fill="#231F20"/>
<path d="M175.195 25.0016C175.195 25.0311 175.186 25.0531 175.167 25.0693C175.148 25.0855 175.123 25.0973 175.092 25.1046C175.061 25.112 175.02 25.1149 174.967 25.1149C174.917 25.1149 174.875 25.1105 174.84 25.1046C174.805 25.0973 174.778 25.0855 174.759 25.0693C174.74 25.0531 174.731 25.0311 174.731 25.0016V24.5588C174.553 24.7515 174.356 24.9001 174.141 25.006C173.926 25.112 173.703 25.1635 173.473 25.1635C173.266 25.1635 173.079 25.137 172.914 25.0826C172.749 25.0281 172.61 24.9516 172.495 24.8501C172.38 24.7486 172.293 24.6279 172.231 24.4837C172.17 24.341 172.139 24.1791 172.139 24.0011C172.139 23.7819 172.184 23.5906 172.274 23.4288C172.365 23.2669 172.493 23.1316 172.66 23.0227C172.826 22.9153 173.026 22.8329 173.26 22.7799C173.494 22.7255 173.754 22.699 174.04 22.699H174.671V22.3576C174.671 22.1884 174.653 22.0384 174.618 21.9089C174.583 21.7794 174.525 21.6705 174.447 21.5822C174.368 21.494 174.266 21.4292 174.14 21.3851C174.015 21.3409 173.86 21.3189 173.679 21.3189C173.498 21.3189 173.347 21.3395 173.205 21.3821C173.066 21.4248 172.942 21.4719 172.838 21.5249C172.733 21.5778 172.645 21.6249 172.577 21.6676C172.508 21.7102 172.459 21.7308 172.43 21.7308C172.412 21.7308 172.396 21.7279 172.381 21.722C172.367 21.7161 172.355 21.7058 172.345 21.6896C172.334 21.6735 172.327 21.6529 172.323 21.6279C172.318 21.6028 172.317 21.5734 172.317 21.5381C172.317 21.4763 172.321 21.4278 172.33 21.391C172.339 21.3542 172.361 21.3174 172.398 21.2806C172.434 21.2438 172.499 21.2012 172.593 21.1511C172.687 21.1011 172.795 21.0555 172.916 21.0128C173.036 20.9702 173.167 20.9363 173.308 20.9098C173.45 20.8834 173.589 20.8701 173.729 20.8701C174.001 20.8701 174.231 20.9025 174.418 20.9687C174.605 21.0349 174.756 21.1291 174.871 21.2512C174.987 21.3733 175.07 21.5249 175.118 21.7044C175.167 21.8839 175.193 22.0884 175.193 22.3164V25.0002L175.195 25.0016ZM174.672 23.1301H173.948C173.738 23.1301 173.554 23.1492 173.397 23.1875C173.239 23.2257 173.107 23.2816 173.002 23.3537C172.898 23.4273 172.818 23.5141 172.768 23.6171C172.717 23.7201 172.692 23.8363 172.692 23.9673C172.692 24.1953 172.764 24.3778 172.908 24.5131C173.052 24.6485 173.257 24.7162 173.52 24.7162C173.728 24.7162 173.922 24.6632 174.101 24.5558C174.281 24.4499 174.472 24.2851 174.674 24.0629V23.1286L174.672 23.1301Z" fill="#231F20"/>
<path d="M177.147 25C177.147 25.0176 177.143 25.0338 177.134 25.0485C177.125 25.0632 177.112 25.075 177.093 25.0838C177.074 25.0927 177.047 25.1 177.013 25.1059C176.98 25.1118 176.937 25.1147 176.884 25.1147C176.834 25.1147 176.793 25.1118 176.759 25.1059C176.725 25.1 176.699 25.0927 176.678 25.0838C176.657 25.075 176.644 25.0632 176.637 25.0485C176.629 25.0338 176.625 25.0176 176.625 25V19.0896C176.625 19.072 176.629 19.0558 176.637 19.0411C176.644 19.0263 176.657 19.0146 176.678 19.0043C176.699 18.994 176.725 18.9866 176.759 18.9822C176.793 18.9778 176.834 18.9763 176.884 18.9763C176.937 18.9763 176.98 18.9793 177.013 18.9822C177.047 18.9866 177.074 18.994 177.093 19.0043C177.112 19.0146 177.125 19.0263 177.134 19.0411C177.143 19.0558 177.147 19.072 177.147 19.0896V25Z" fill="#231F20"/>
<path d="M181.863 22.8135C181.863 22.9194 181.835 22.9915 181.779 23.0313C181.723 23.071 181.668 23.0901 181.617 23.0901H178.913C178.913 23.3358 178.936 23.558 178.985 23.7566C179.033 23.9553 179.113 24.1259 179.223 24.2672C179.333 24.4084 179.479 24.5173 179.657 24.5938C179.835 24.6703 180.054 24.7071 180.315 24.7071C180.499 24.7071 180.664 24.6909 180.811 24.6586C180.958 24.6262 181.083 24.5909 181.19 24.5511C181.296 24.5114 181.384 24.4761 181.454 24.4437C181.523 24.4114 181.571 24.3952 181.601 24.3952C181.618 24.3952 181.635 24.3996 181.649 24.4084C181.664 24.4173 181.676 24.4305 181.685 24.4496C181.693 24.4688 181.699 24.4923 181.704 24.5217C181.708 24.5511 181.71 24.5879 181.71 24.6321C181.71 24.6527 181.71 24.6718 181.705 24.6909C181.702 24.7101 181.699 24.7277 181.695 24.7439C181.69 24.7601 181.683 24.7748 181.676 24.7895C181.667 24.8042 181.655 24.8189 181.64 24.8336C181.626 24.8484 181.58 24.8734 181.505 24.9102C181.429 24.9469 181.33 24.9837 181.206 25.0205C181.084 25.0573 180.942 25.0897 180.78 25.1191C180.618 25.1485 180.443 25.1632 180.256 25.1632C179.95 25.1632 179.678 25.1176 179.441 25.0249C179.204 24.9322 179.005 24.7969 178.845 24.6174C178.685 24.4379 178.562 24.2142 178.479 23.9494C178.395 23.6845 178.354 23.3756 178.354 23.0239C178.354 22.6723 178.396 22.3868 178.483 22.1205C178.57 21.8542 178.693 21.6291 178.854 21.4437C179.014 21.2583 179.208 21.1171 179.435 21.0185C179.662 20.9199 179.913 20.8713 180.191 20.8713C180.49 20.8713 180.743 20.9214 180.953 21.0199C181.164 21.12 181.337 21.2524 181.473 21.4216C181.608 21.5894 181.708 21.785 181.771 22.0072C181.835 22.2294 181.866 22.4633 181.866 22.709V22.8135H181.863ZM181.323 22.6605C181.331 22.2397 181.234 21.9116 181.033 21.6747C180.831 21.4378 180.537 21.3201 180.151 21.3201C179.953 21.3201 179.778 21.3569 179.628 21.4319C179.478 21.507 179.35 21.6055 179.247 21.7277C179.142 21.8498 179.063 21.9925 179.008 22.1558C178.952 22.3177 178.92 22.4869 178.911 22.662H181.323V22.6605Z" fill="#231F20"/>
<path d="M185.264 21.2357C185.264 21.2799 185.264 21.3167 185.26 21.3475C185.257 21.3784 185.252 21.4035 185.245 21.4226C185.238 21.4417 185.229 21.4564 185.218 21.4667C185.208 21.477 185.195 21.4814 185.177 21.4814C185.151 21.4814 185.12 21.4756 185.085 21.4623C185.049 21.4491 185.008 21.4358 184.962 21.4211C184.915 21.4064 184.864 21.3932 184.809 21.3799C184.754 21.3667 184.693 21.3608 184.626 21.3608C184.546 21.3608 184.47 21.3784 184.393 21.4108C184.317 21.4447 184.237 21.4991 184.155 21.5727C184.071 21.6477 183.984 21.7463 183.891 21.8684C183.799 21.9905 183.697 22.1421 183.587 22.3201V25.0038C183.587 25.0215 183.582 25.0377 183.574 25.0524C183.565 25.0671 183.551 25.0789 183.532 25.0877C183.513 25.0965 183.487 25.1039 183.453 25.1098C183.419 25.1156 183.376 25.1186 183.323 25.1186C183.273 25.1186 183.232 25.1156 183.198 25.1098C183.165 25.1039 183.138 25.0965 183.117 25.0877C183.097 25.0789 183.084 25.0671 183.076 25.0524C183.069 25.0377 183.064 25.0215 183.064 25.0038V21.0356C183.064 21.018 183.069 21.0018 183.076 20.9871C183.084 20.9724 183.097 20.9606 183.117 20.9503C183.138 20.94 183.163 20.9326 183.194 20.9282C183.225 20.9238 183.265 20.9223 183.315 20.9223C183.365 20.9223 183.406 20.9238 183.437 20.9282C183.468 20.9326 183.494 20.94 183.512 20.9503C183.529 20.9606 183.541 20.9724 183.549 20.9871C183.556 21.0018 183.559 21.018 183.559 21.0356V21.6624C183.674 21.4962 183.778 21.3608 183.875 21.2593C183.972 21.1577 184.063 21.0768 184.152 21.0209C184.24 20.9635 184.325 20.9253 184.408 20.9047C184.492 20.8841 184.577 20.8738 184.664 20.8738C184.702 20.8738 184.746 20.8752 184.795 20.8797C184.845 20.8841 184.898 20.8914 184.955 20.9032C185.013 20.915 185.064 20.9282 185.108 20.9444C185.152 20.9606 185.185 20.9753 185.202 20.9885C185.22 21.0018 185.232 21.0136 185.238 21.0239C185.244 21.0342 185.249 21.0474 185.252 21.0636C185.257 21.0798 185.26 21.1018 185.261 21.1298C185.261 21.1577 185.263 21.1931 185.263 21.2372L185.264 21.2357Z" fill="#231F20"/>
<path d="M188.301 23.945C188.301 24.1348 188.266 24.3054 188.196 24.4555C188.126 24.6056 188.026 24.7336 187.896 24.8395C187.767 24.9455 187.611 25.0249 187.43 25.0808C187.249 25.1367 187.049 25.1647 186.83 25.1647C186.693 25.1647 186.562 25.1529 186.44 25.1323C186.318 25.1103 186.206 25.0823 186.107 25.0485C186.009 25.0146 185.923 24.9793 185.856 24.9411C185.786 24.9028 185.736 24.869 185.704 24.8395C185.672 24.8101 185.648 24.7733 185.633 24.7292C185.619 24.685 185.611 24.6262 185.611 24.5541C185.611 24.5158 185.614 24.482 185.62 24.4526C185.626 24.4231 185.633 24.3981 185.642 24.3775C185.651 24.3569 185.663 24.3422 185.678 24.3319C185.692 24.3216 185.708 24.3172 185.726 24.3172C185.758 24.3172 185.806 24.3378 185.866 24.379C185.926 24.4202 186.004 24.4643 186.095 24.5129C186.188 24.5614 186.297 24.6056 186.424 24.6468C186.55 24.688 186.697 24.7086 186.865 24.7086C186.999 24.7086 187.122 24.6939 187.233 24.6644C187.343 24.635 187.44 24.5909 187.523 24.5335C187.605 24.4746 187.668 24.3996 187.714 24.3084C187.759 24.2157 187.782 24.1083 187.782 23.9862C187.782 23.864 187.752 23.7596 187.693 23.6742C187.634 23.5889 187.558 23.5153 187.464 23.4535C187.37 23.3917 187.261 23.3358 187.139 23.2873C187.018 23.2387 186.893 23.1887 186.766 23.1387C186.64 23.0872 186.515 23.0313 186.394 22.9695C186.273 22.9077 186.165 22.8341 186.069 22.7458C185.973 22.6575 185.897 22.5531 185.839 22.4295C185.781 22.3074 185.751 22.1588 185.751 21.9866C185.751 21.8498 185.778 21.7144 185.831 21.5805C185.884 21.4481 185.964 21.3289 186.073 21.223C186.182 21.1171 186.323 21.0332 186.494 20.9684C186.665 20.9037 186.868 20.8713 187.102 20.8713C187.2 20.8713 187.299 20.8787 187.398 20.8949C187.496 20.9111 187.584 20.9317 187.665 20.9581C187.746 20.9846 187.815 21.0126 187.874 21.0435C187.933 21.0744 187.977 21.1009 188.008 21.1244C188.039 21.1479 188.06 21.1671 188.07 21.1833C188.08 21.1994 188.088 21.2156 188.092 21.2333C188.096 21.2509 188.099 21.2715 188.102 21.2966C188.105 21.3216 188.107 21.351 188.107 21.3863C188.107 21.4216 188.104 21.4525 188.101 21.4805C188.096 21.5084 188.091 21.532 188.082 21.5526C188.073 21.5732 188.063 21.5879 188.049 21.5982C188.036 21.6085 188.021 21.6129 188.004 21.6129C187.98 21.6129 187.945 21.5967 187.899 21.5643C187.854 21.532 187.79 21.4967 187.715 21.4599C187.639 21.4216 187.549 21.3863 187.443 21.3539C187.339 21.3216 187.217 21.3054 187.08 21.3054C186.943 21.3054 186.822 21.3216 186.718 21.3539C186.613 21.3863 186.528 21.4319 186.462 21.4893C186.394 21.5482 186.344 21.6158 186.31 21.6953C186.276 21.7747 186.26 21.8601 186.26 21.9542C186.26 22.0822 186.29 22.1911 186.348 22.2779C186.407 22.3662 186.484 22.4413 186.581 22.506C186.678 22.5707 186.787 22.6266 186.911 22.6767C187.033 22.7267 187.158 22.7767 187.286 22.8253C187.412 22.8753 187.537 22.9297 187.661 22.9901C187.784 23.0504 187.893 23.1225 187.989 23.2063C188.086 23.2917 188.163 23.3932 188.221 23.5109C188.28 23.6286 188.31 23.7713 188.31 23.9376L188.301 23.945Z" fill="#231F20"/>
<path d="M192.659 25C192.659 25.0176 192.654 25.0338 192.645 25.0485C192.637 25.0632 192.623 25.075 192.604 25.0838C192.585 25.0927 192.559 25.1 192.525 25.1059C192.491 25.1118 192.45 25.1147 192.4 25.1147C192.347 25.1147 192.304 25.1118 192.27 25.1059C192.236 25.1 192.21 25.0927 192.191 25.0838C192.172 25.075 192.158 25.0632 192.15 25.0485C192.141 25.0338 192.136 25.0176 192.136 25V22.6458C192.136 22.4001 192.117 22.2015 192.079 22.047C192.041 21.894 191.983 21.7616 191.908 21.6527C191.832 21.5423 191.735 21.4585 191.617 21.3981C191.499 21.3378 191.361 21.3084 191.202 21.3084C191.001 21.3084 190.799 21.3805 190.597 21.5232C190.396 21.6659 190.184 21.8763 189.962 22.1544V25C189.962 25.0176 189.957 25.0338 189.949 25.0485C189.94 25.0632 189.926 25.075 189.907 25.0838C189.888 25.0927 189.862 25.1 189.828 25.1059C189.794 25.1118 189.751 25.1147 189.698 25.1147C189.648 25.1147 189.607 25.1118 189.573 25.1059C189.54 25.1 189.513 25.0927 189.492 25.0838C189.472 25.075 189.459 25.0632 189.451 25.0485C189.444 25.0338 189.439 25.0176 189.439 25V19.0896C189.439 19.072 189.444 19.0558 189.451 19.0411C189.459 19.0263 189.472 19.0146 189.492 19.0043C189.513 18.994 189.54 18.9866 189.573 18.9822C189.607 18.9778 189.648 18.9763 189.698 18.9763C189.751 18.9763 189.794 18.9793 189.828 18.9822C189.862 18.9866 189.888 18.994 189.907 19.0043C189.926 19.0146 189.94 19.0263 189.949 19.0411C189.957 19.0558 189.962 19.072 189.962 19.0896V21.5659C190.178 21.326 190.394 21.1495 190.611 21.0377C190.827 20.9258 191.043 20.8685 191.259 20.8685C191.52 20.8685 191.739 20.9126 191.917 20.9994C192.095 21.0877 192.239 21.2054 192.348 21.354C192.459 21.5026 192.537 21.6777 192.585 21.8763C192.634 22.0749 192.657 22.3148 192.657 22.5958V24.9985L192.659 25Z" fill="#231F20"/>
<path d="M194.713 19.6935C194.713 19.8332 194.688 19.9289 194.638 19.9789C194.588 20.0289 194.499 20.0539 194.366 20.0539C194.234 20.0539 194.15 20.0304 194.101 19.9818C194.053 19.9333 194.029 19.8391 194.029 19.6993C194.029 19.5596 194.054 19.4639 194.104 19.4139C194.154 19.3639 194.244 19.3389 194.377 19.3389C194.509 19.3389 194.594 19.3624 194.641 19.411C194.688 19.4595 194.713 19.5537 194.713 19.6935ZM194.634 24.9976C194.634 25.0153 194.63 25.0315 194.621 25.0462C194.612 25.0609 194.599 25.0727 194.58 25.0815C194.56 25.0903 194.534 25.0977 194.5 25.1036C194.466 25.1094 194.424 25.1124 194.371 25.1124C194.321 25.1124 194.279 25.1094 194.246 25.1036C194.212 25.0977 194.185 25.0903 194.165 25.0815C194.144 25.0727 194.131 25.0609 194.123 25.0462C194.116 25.0315 194.112 25.0153 194.112 24.9976V21.0294C194.112 21.0118 194.116 20.9956 194.123 20.9809C194.131 20.9662 194.144 20.9544 194.165 20.9441C194.185 20.9338 194.212 20.9264 194.246 20.922C194.279 20.9176 194.321 20.9161 194.371 20.9161C194.424 20.9161 194.466 20.9176 194.5 20.922C194.534 20.9264 194.56 20.9338 194.58 20.9441C194.599 20.9544 194.612 20.9662 194.621 20.9809C194.63 20.9956 194.634 21.0118 194.634 21.0294V24.9976Z" fill="#231F20"/>
<path d="M199.551 22.9584C199.551 23.2968 199.514 23.6029 199.439 23.8751C199.364 24.1472 199.255 24.3783 199.11 24.5681C198.965 24.7579 198.786 24.905 198.572 25.0095C198.359 25.1124 198.115 25.1654 197.84 25.1654C197.724 25.1654 197.613 25.1536 197.512 25.1286C197.41 25.1036 197.309 25.0654 197.211 25.0124C197.113 24.9594 197.016 24.8947 196.917 24.8152C196.819 24.7358 196.716 24.6416 196.608 24.5298V26.5779C196.608 26.5956 196.604 26.6117 196.595 26.6265C196.586 26.6412 196.573 26.6529 196.554 26.6632C196.535 26.6735 196.508 26.6809 196.474 26.6853C196.441 26.6897 196.398 26.6912 196.345 26.6912C196.295 26.6912 196.254 26.6897 196.22 26.6853C196.186 26.6809 196.16 26.6735 196.139 26.6632C196.118 26.6529 196.105 26.6412 196.098 26.6265C196.09 26.6117 196.086 26.5956 196.086 26.5779V21.0368C196.086 21.0162 196.09 20.9986 196.098 20.9839C196.105 20.9692 196.118 20.9574 196.137 20.9486C196.157 20.9397 196.182 20.9339 196.212 20.9294C196.243 20.925 196.28 20.9236 196.324 20.9236C196.368 20.9236 196.405 20.925 196.435 20.9294C196.464 20.9339 196.489 20.9397 196.51 20.9486C196.53 20.9574 196.545 20.9692 196.554 20.9839C196.563 20.9986 196.567 21.0162 196.567 21.0368V21.6107C196.689 21.4856 196.807 21.3767 196.917 21.284C197.028 21.1928 197.139 21.1148 197.25 21.0545C197.36 20.9927 197.475 20.9471 197.591 20.9191C197.707 20.8897 197.832 20.875 197.963 20.875C198.25 20.875 198.493 20.9294 198.696 21.0398C198.899 21.1501 199.062 21.2987 199.189 21.4885C199.316 21.6783 199.408 21.9005 199.466 22.1521C199.523 22.4037 199.551 22.6744 199.551 22.9614V22.9584ZM199.004 23.0423C199.004 22.8201 198.986 22.6068 198.951 22.3993C198.915 22.1918 198.856 22.0094 198.773 21.849C198.689 21.6887 198.578 21.5592 198.44 21.4635C198.302 21.3664 198.127 21.3193 197.916 21.3193C197.812 21.3193 197.707 21.3341 197.607 21.3635C197.507 21.3929 197.403 21.4415 197.298 21.5077C197.192 21.5754 197.084 21.6622 196.969 21.7681C196.855 21.8755 196.735 22.0065 196.61 22.1654V23.8927C196.829 24.159 197.039 24.3621 197.239 24.5048C197.44 24.646 197.65 24.7167 197.869 24.7167C198.071 24.7167 198.244 24.6681 198.389 24.5695C198.533 24.4709 198.65 24.3429 198.742 24.184C198.833 24.0251 198.899 23.8456 198.942 23.6441C198.984 23.444 199.005 23.2424 199.005 23.0408L199.004 23.0423Z" fill="#231F20"/>
</svg>
